<?xml version="1.0" standalone="no"?>
<!DOCTYPE svg PUBLIC "-//W3C//DTD SVG 20010904//EN"
 "http://www.w3.org/TR/2001/REC-SVG-20010904/DTD/svg10.dtd">
<svg version="1.0" xmlns="http://www.w3.org/2000/svg"
 width="407.000000pt" height="166.000000pt" viewBox="0 0 407.000000 166.000000"
 preserveAspectRatio="xMidYMid meet">

<g transform="translate(0.000000,166.000000) scale(0.100000,-0.100000)"
fill="#000000" stroke="none">
<path d="M1553 1368 c-6 -7 -28 -48 -48 -91 -42 -87 -42 -88 23 -208 l29 -54
111 -3 112 -3 47 94 46 95 -46 88 -45 89 -110 3 c-79 2 -112 -1 -119 -10z"/>
<path d="M1205 1280 c-123 -20 -185 -110 -185 -270 0 -176 69 -254 225 -254
64 -1 88 4 123 22 74 39 112 123 112 246 0 121 -36 198 -108 235 -44 22 -112
30 -167 21z m119 -99 c42 -73 39 -281 -6 -342 -43 -58 -113 -47 -147 25 -38
81 -34 275 7 331 38 54 110 47 146 -14z"/>
<path d="M2825 1280 c-85 -13 -144 -66 -170 -152 -30 -102 -11 -253 39 -311
41 -47 84 -62 176 -61 80 0 89 2 134 33 65 45 88 98 94 213 5 98 -13 175 -51
216 -47 51 -134 75 -222 62z m76 -56 c51 -26 72 -90 72 -214 0 -81 -4 -114
-18 -143 -33 -69 -82 -85 -132 -43 -40 34 -56 93 -55 206 0 116 18 171 65 194
39 19 32 19 68 0z"/>
<path d="M47 1274 c-4 -4 5 -20 18 -36 25 -29 25 -32 25 -222 0 -192 0 -193
-25 -220 -14 -15 -23 -30 -21 -34 2 -4 38 -6 80 -4 56 3 76 7 76 17 0 8 -8 16
-19 20 -26 8 -31 44 -31 204 l1 136 22 -37 c12 -21 60 -105 107 -188 l85 -149
53 -1 52 0 0 228 c0 216 1 230 20 247 38 35 26 45 -55 45 -79 0 -91 -8 -56
-38 17 -15 20 -35 24 -170 l4 -153 -44 83 c-25 45 -48 87 -52 93 -5 5 -25 42
-46 80 -62 114 -51 105 -136 105 -41 0 -79 -3 -82 -6z"/>
<path d="M570 1266 c0 -9 9 -20 20 -26 19 -10 20 -21 20 -223 0 -201 -1 -213
-20 -225 -44 -27 -19 -32 173 -32 l192 0 3 70 3 70 -29 0 c-25 0 -32 -6 -41
-31 -15 -45 -38 -58 -98 -59 l-53 0 0 96 0 95 38 -3 c27 -2 40 -9 47 -25 6
-14 18 -23 32 -23 22 0 23 4 23 80 0 74 -2 80 -20 80 -12 0 -24 -10 -29 -24
-10 -25 -30 -36 -67 -36 -24 0 -24 1 -24 90 l0 90 53 0 c58 -1 81 -14 97 -54
8 -22 15 -27 38 -24 26 3 27 5 27 63 l0 60 -192 3 c-165 2 -193 0 -193 -12z"/>
<path d="M2325 1264 c-70 -36 -95 -85 -81 -159 10 -49 44 -85 124 -129 41 -22
74 -48 81 -63 24 -53 7 -96 -44 -109 -40 -10 -78 9 -100 49 -16 29 -26 37 -48
37 -28 0 -28 0 -25 -62 l3 -63 73 -9 c151 -17 239 18 262 105 23 84 -18 157
-114 206 -28 14 -61 35 -73 47 -56 53 0 143 72 116 14 -5 35 -26 46 -45 15
-25 28 -35 45 -35 23 0 24 3 24 59 0 70 -1 71 -130 71 -58 0 -95 -5 -115 -16z"/>
<path d="M3170 1266 c0 -9 9 -20 20 -26 19 -10 20 -21 20 -220 0 -199 -1 -210
-20 -222 -43 -27 -23 -37 85 -40 88 -3 105 -1 105 12 0 8 -9 21 -20 28 -18 11
-20 23 -20 102 l0 90 35 0 c28 0 37 -5 50 -30 9 -18 23 -30 35 -30 18 0 20 7
20 85 0 84 0 85 -25 85 -14 0 -25 -6 -25 -13 0 -22 -34 -47 -63 -47 l-27 0 0
95 0 95 49 0 c53 0 75 -14 92 -57 7 -19 15 -24 37 -21 26 3 27 5 27 63 l0 60
-187 3 c-161 2 -188 0 -188 -12z"/>
<path d="M3590 1210 l0 -70 29 0 c22 0 30 6 35 25 9 35 41 65 71 65 l25 0 0
-214 c0 -206 -1 -215 -20 -221 -11 -3 -20 -13 -20 -21 0 -11 21 -14 105 -14
78 0 105 3 105 13 0 7 -9 18 -20 25 -19 12 -20 23 -20 222 l0 210 25 0 c30 0
62 -30 71 -65 5 -19 13 -25 35 -25 l29 0 0 70 0 70 -225 0 -225 0 0 -70z"/>
<path d="M2007 1172 l-87 -3 -45 -88 -44 -89 44 -91 44 -91 114 0 114 0 47 91
46 90 -47 92 c-54 102 -37 94 -186 89z"/>
<path d="M1512 885 c-23 -47 -42 -90 -42 -96 0 -13 80 -173 90 -179 4 -3 57
-4 117 -2 l108 3 44 87 43 88 -44 89 -43 90 -116 3 -116 3 -41 -86z"/>
<path d="M3290 545 c-8 -9 -13 -47 -14 -95 l-1 -80 52 0 c46 0 51 2 46 20 -4
15 0 20 15 20 22 0 37 -26 19 -34 -7 -2 4 -5 24 -5 l36 -1 -23 66 c-36 108
-47 109 -84 7 -13 -35 -27 -63 -32 -63 -6 0 -8 28 -6 65 3 64 2 65 -22 65
l-25 1 28 17 c15 9 27 20 27 24 0 14 -27 9 -40 -7z m108 -114 c-15 -5 -19 4
-11 24 6 18 7 18 13 -1 4 -10 3 -21 -2 -23z"/>
<path d="M640 511 c-17 -5 -26 -15 -28 -33 -3 -26 3 -34 43 -63 17 -13 18 -16
5 -25 -11 -7 -18 -5 -27 6 -14 19 -35 10 -26 -12 4 -11 17 -14 47 -12 38 3 41
5 44 35 3 27 -2 34 -27 48 -20 10 -28 20 -25 30 8 19 13 19 36 -2 17 -15 18
-15 18 4 0 16 -23 38 -33 32 -1 -1 -13 -4 -27 -8z"/>
<path d="M760 508 c-31 -12 -40 -25 -40 -66 0 -54 15 -72 60 -72 29 0 43 6 54
22 17 24 21 75 8 95 -13 20 -55 31 -82 21z m38 -20 c17 -17 15 -83 -4 -99 -20
-17 -34 2 -34 48 0 56 14 75 38 51z"/>
<path d="M878 452 c3 -47 1 -67 -9 -73 -9 -5 9 -9 47 -9 60 0 61 0 56 25 -4
24 -6 25 -22 10 -27 -25 -32 -18 -28 44 3 57 2 60 -22 63 -26 4 -26 4 -22 -60z"/>
<path d="M974 509 c-2 -4 0 -10 6 -14 5 -3 10 -26 10 -50 0 -65 7 -75 50 -75
47 0 53 9 60 83 5 53 4 57 -15 57 -18 0 -20 -5 -17 -50 4 -57 -11 -88 -34 -69
-17 14 -19 90 -3 106 7 7 2 12 -21 15 -17 3 -33 1 -36 -3z"/>
<path d="M1245 443 c0 -71 1 -73 25 -73 25 0 26 1 20 60 -3 33 -2 64 3 69 5 5
-4 10 -20 13 l-28 4 0 -73z"/>
<path d="M1619 510 c0 -3 -1 -35 -2 -72 l-2 -68 53 0 c45 0 52 3 52 20 0 11
-7 20 -15 20 -8 0 -15 -4 -15 -9 0 -5 -7 -11 -15 -15 -11 -4 -15 2 -15 20 0
21 4 24 20 19 15 -5 20 -2 20 14 0 11 -4 23 -10 26 -5 3 -10 1 -10 -4 0 -6 -4
-11 -10 -11 -5 0 -10 11 -10 25 0 29 7 31 32 9 16 -16 18 -15 24 0 4 9 4 19 1
22 -6 7 -97 10 -98 4z"/>
<path d="M1760 511 c-40 -11 -39 -50 1 -84 28 -23 31 -29 19 -37 -10 -7 -18
-5 -26 5 -16 21 -24 19 -24 -6 0 -18 5 -20 43 -17 39 3 42 5 45 35 3 27 -2 34
-27 48 -20 10 -28 20 -25 30 8 19 13 19 36 -2 17 -15 18 -15 18 4 0 16 -23 38
-33 32 -1 -1 -13 -4 -27 -8z"/>
<path d="M2339 510 c0 -3 -1 -35 -2 -72 l-2 -68 53 0 c45 0 52 3 52 20 0 11
-7 20 -15 20 -8 0 -15 -4 -15 -9 0 -5 -7 -11 -15 -15 -11 -4 -15 2 -15 20 0
19 4 25 15 20 20 -7 32 21 16 37 -8 8 -11 8 -11 -1 0 -7 -4 -12 -10 -12 -5 0
-10 11 -10 25 0 25 14 33 25 15 10 -15 35 -12 35 5 0 8 -3 15 -7 16 -41 3 -93
3 -94 -1z"/>
<path d="M2496 509 c-37 -10 -46 -24 -46 -76 0 -49 17 -63 74 -63 25 0 36 5
36 14 0 22 -16 28 -30 11 -27 -33 -54 37 -34 89 7 19 31 21 36 4 2 -6 10 -8
16 -4 32 20 -5 38 -52 25z"/>
<path d="M2750 513 c-37 -13 -53 -79 -30 -124 16 -28 84 -27 104 3 19 27 21
78 4 100 -15 18 -55 29 -78 21z m50 -73 c0 -43 -25 -74 -41 -49 -13 20 -11 83
3 97 19 19 38 -5 38 -48z"/>
<path d="M3020 512 c-37 -12 -53 -80 -30 -123 16 -28 84 -27 104 3 19 27 21
78 4 100 -14 17 -55 27 -78 20z m38 -24 c17 -17 15 -83 -4 -99 -20 -17 -34 2
-34 48 0 56 14 75 38 51z"/>
<path d="M3173 509 c-26 -8 -33 -16 -39 -46 -4 -20 -3 -48 2 -62 8 -23 16 -26
59 -29 l50 -3 1 36 c0 31 -2 35 -24 35 -19 0 -23 -4 -19 -19 2 -10 1 -25 -4
-32 -8 -12 -11 -11 -19 1 -29 44 5 138 35 97 16 -22 25 -22 25 2 0 15 -23 36
-33 30 -1 0 -16 -5 -34 -10z"/>
<path d="M1136 494 c-18 -18 -21 -76 -6 -105 8 -14 21 -19 50 -19 39 0 56 11
45 30 -4 6 -15 4 -29 -5 -21 -14 -24 -14 -30 0 -20 53 12 134 36 92 10 -19 28
-14 28 9 0 20 -74 19 -94 -2z"/>
<path d="M1326 494 c-18 -18 -21 -76 -6 -105 17 -30 85 -26 106 6 19 29 14 93
-8 107 -22 13 -76 9 -92 -8z m62 -6 c20 -20 15 -86 -7 -97 -23 -13 -31 2 -31
58 0 50 13 64 38 39z"/>
<path d="M1465 440 c0 -56 3 -70 15 -70 12 0 15 9 12 40 -2 22 -2 40 1 40 3 0
16 -18 28 -40 13 -23 30 -40 40 -40 15 0 18 12 21 70 3 67 2 70 -19 70 -19 0
-21 -3 -14 -23 16 -40 -4 -51 -22 -12 -12 25 -23 35 -39 35 -22 0 -23 -4 -23
-70z"/>
<path d="M1888 501 c10 -6 13 -26 10 -70 l-3 -61 53 0 c45 0 52 3 52 20 0 11
-7 20 -15 20 -8 0 -15 -4 -15 -9 0 -5 -7 -11 -15 -15 -11 -4 -15 2 -15 20 0
18 5 24 17 22 10 -2 18 4 18 12 2 25 -6 32 -21 19 -11 -9 -14 -7 -14 15 0 26
13 35 25 16 9 -15 32 -12 32 5 0 12 -14 15 -61 15 -38 0 -56 -4 -48 -9z"/>
<path d="M2015 440 c0 -56 3 -70 15 -70 12 0 14 11 12 48 l-3 47 27 -47 c16
-29 34 -48 45 -48 15 0 18 11 21 70 3 65 2 70 -17 70 -18 0 -21 -5 -18 -37 l4
-38 -21 38 c-14 25 -27 37 -43 37 -21 0 -22 -4 -22 -70z"/>
<path d="M2190 496 c0 -24 20 -29 35 -10 13 17 14 12 15 -43 0 -40 -4 -63 -12
-66 -7 -3 3 -6 22 -6 l35 -1 -3 62 c-3 51 -1 61 9 51 19 -19 29 -16 29 7 0 18
-7 20 -65 20 -50 0 -65 -3 -65 -14z"/>
<path d="M2575 440 c0 -56 3 -70 15 -70 12 0 15 11 12 48 l-2 47 25 -47 c17
-32 32 -48 44 -48 17 0 20 9 23 70 3 66 2 70 -19 70 -19 0 -21 -3 -13 -30 5
-18 5 -30 0 -30 -5 0 -16 14 -25 30 -10 20 -23 30 -38 30 -21 0 -22 -4 -22
-70z"/>
<path d="M2865 440 l0 -70 48 0 c44 0 47 1 47 27 l0 27 -22 -24 -23 -25 -3 24
c-2 13 -2 44 0 67 3 41 2 44 -22 44 -24 0 -25 -2 -25 -70z"/>
</g>
</svg>
